<?xml version="1.0" encoding="UTF-8"?>
<svg id="Layer_2" data-name="Layer 2" xmlns="http://www.w3.org/2000/svg" xmlns:xlink="http://www.w3.org/1999/xlink" viewBox="0 0 100 100">
  <defs>
    <style>
      .cls-1 {
        fill: #06d6a0;
      }

      .cls-1, .cls-2, .cls-3 {
        stroke-width: 0px;
      }

      .cls-2 {
        fill: none;
      }

      .cls-4 {
        clip-path: url(#clippath);
      }

      .cls-3 {
        fill: #d6fff4;
      }
    </style>
    <clipPath id="clippath">
      <rect class="cls-2" x="18" y="18" width="64" height="63.99"/>
    </clipPath>
  </defs>
  <g id="Layer_1-2" data-name="Layer 1">
    <g>
      <circle class="cls-1" cx="50" cy="50" r="50"/>
      <g class="cls-4">
        <g>
          <path class="cls-3" d="M47.96,68.63l-10.68,10.68c-3.97,3.97-10.91,3.48-15.49-1.11-4.58-4.58-5.08-11.52-1.11-15.49l10.68-10.68c.13.26.3.5.52.71l15.36,15.36c.21.21.45.4.72.53Z"/>
          <path class="cls-3" d="M79.32,37.28l-10.69,10.68c-.13-.26-.31-.5-.53-.72l-15.34-15.34c-.21-.21-.45-.39-.72-.53l10.68-10.68c3.97-3.97,10.91-3.48,15.49,1.11,4.58,4.58,5.08,11.52,1.11,15.49Z"/>
          <path class="cls-3" d="M67.83,48.76c-.09-.28-.26-.55-.48-.77l-15.34-15.34c-.22-.22-.48-.38-.77-.48-.22-.08-.45-.12-.69-.12-.52,0-1.06.21-1.45.6l-16.45,16.45c-.57.57-.74,1.42-.48,2.14.1.28.26.55.48.77l15.35,15.34c.22.23.48.39.77.48.22.08.45.12.69.12.52,0,1.06-.21,1.45-.6l16.45-16.45c.58-.58.74-1.42.48-2.14ZM50.8,50.8c-.21.21-.5.33-.8.33s-.59-.12-.8-.33c-.45-.45-.45-1.16,0-1.61.21-.21.5-.33.8-.33s.59.12.8.33c.45.45.45,1.16,0,1.61ZM60.81,48.45c.22-.21.5-.33.81-.33s.59.12.8.33c.45.45.45,1.16,0,1.61-.21.21-.5.33-.8.33s-.59-.12-.81-.33c-.44-.45-.44-1.16,0-1.61ZM55.28,42.92c.22-.21.5-.33.81-.33s.59.12.8.33c.21.21.33.5.33.8s-.12.6-.33.81c-.21.21-.5.33-.8.33s-.59-.12-.81-.33c-.44-.45-.44-1.16,0-1.61ZM54.72,54.72c.22-.21.5-.33.81-.33s.59.12.8.33c.45.45.45,1.16,0,1.61-.21.21-.5.33-.8.33s-.59-.12-.81-.33c-.44-.45-.44-1.16,0-1.61ZM51.35,37.39c.45.45.45,1.16,0,1.61-.21.21-.5.33-.8.33s-.59-.12-.8-.33c-.45-.45-.45-1.16,0-1.61.21-.21.5-.33.8-.33s.59.12.8.33ZM39.18,51.54c-.21.21-.5.33-.8.33s-.59-.12-.8-.33c-.45-.45-.45-1.16,0-1.61.21-.21.5-.33.8-.33s.59.12.8.33c.45.45.45,1.16,0,1.61ZM44.72,57.07c-.21.21-.5.33-.8.33s-.59-.12-.8-.33c-.45-.45-.45-1.16,0-1.61.21-.21.5-.33.8-.33s.59.12.8.33c.45.45.45,1.16,0,1.61ZM45.27,45.27c-.21.21-.5.33-.8.33s-.59-.12-.8-.33c-.45-.45-.45-1.16,0-1.61.21-.21.5-.33.8-.33s.59.12.8.33c.45.45.45,1.16,0,1.61ZM48.65,62.6c-.45-.45-.45-1.16,0-1.61.21-.21.5-.33.8-.33s.59.12.8.33c.45.45.45,1.16,0,1.61-.21.21-.5.33-.8.33s-.59-.12-.8-.33Z"/>
        </g>
      </g>
    </g>
  </g>
</svg>