<?xml version="1.0" encoding="UTF-8"?>
<svg id="Layer_2" data-name="Layer 2" xmlns="http://www.w3.org/2000/svg" xmlns:xlink="http://www.w3.org/1999/xlink" viewBox="0 0 100 100">
  <defs>
    <style>
      .cls-1 {
        stroke: #ffe2e9;
        stroke-linecap: round;
        stroke-miterlimit: 10;
        stroke-width: 4px;
      }

      .cls-1, .cls-2 {
        fill: none;
      }

      .cls-3 {
        fill: #ffe2e9;
      }

      .cls-3, .cls-2, .cls-4 {
        stroke-width: 0px;
      }

      .cls-5 {
        clip-path: url(#clippath);
      }

      .cls-4 {
        fill: #ef476f;
      }
    </style>
    <clipPath id="clippath">
      <rect class="cls-2" x="18" y="21" width="64" height="58.21"/>
    </clipPath>
  </defs>
  <g id="Layer_1-2" data-name="Layer 1">
    <g>
      <circle class="cls-4" cx="50" cy="50" r="50"/>
      <g class="cls-5">
        <g>
          <path class="cls-3" d="M66.9,72.6h-34.44c-1.31,0-2.38,1.07-2.38,2.38v1.85c0,1.31,1.07,2.38,2.38,2.38h34.44c1.32,0,2.38-1.07,2.38-2.38v-1.85c0-1.32-1.07-2.38-2.38-2.38Z"/>
          <path class="cls-3" d="M49.92,35.69c-9.13,0-16.53,7.4-16.53,16.53v19.36h33.06v-19.36c0-9.13-7.4-16.53-16.53-16.53h0ZM62.06,53.64s-.09,0-.13,0c-.54,0-1.01-.4-1.08-.95,0-.04-.54-4.09-3.02-7.05-2.57-3.08-6.82-3.42-6.85-3.42-.6-.04-1.05-.56-1.01-1.16.04-.6.56-1.06,1.16-1.01.21.01,5.22.4,8.38,4.2,2.89,3.47,3.48,7.99,3.51,8.18.08.6-.35,1.14-.95,1.22h0Z"/>
          <path class="cls-1" d="M49.96,31.88v-9.6"/>
          <path class="cls-1" d="M65.81,38.13l6.78-6.79"/>
          <path class="cls-1" d="M71.12,56.17h9.6"/>
          <path class="cls-1" d="M33.55,38.13l-6.78-6.79"/>
          <path class="cls-1" d="M28.88,54.89h-9.6"/>
        </g>
      </g>
    </g>
  </g>
</svg>