<?xml version="1.0" encoding="UTF-8"?>
<svg id="Layer_2" data-name="Layer 2" xmlns="http://www.w3.org/2000/svg" viewBox="0 0 103.9 82.49">
  <defs>
    <style>
      .cls-1 {
        fill: #fdfefe;
      }

      .cls-1, .cls-2 {
        stroke-width: 0px;
      }
    </style>
  </defs>
  <g id="Layer_1-2" data-name="Layer 1">
    <g>
      <path class="cls-2" d="M103.31,21.98c.34,2,.98,3.72.25,5.75-.43,1.21-2.08,2.9-3.29,3.35-1.52.56-3.09.39-4.68.25-1.72-.15-5.08-.82-7.21-1.14-2.59-.39-9.58-1.14-11.32-2.4-3.5-2.55-.96-6.39-.25-9.74l26.5,3.92Z"/>
      <path class="cls-2" d="M14.91,30.32c-2.05.28-6.64,1.12-8.22,1.14-1.64.02-2.93-.22-4.3-1.14-3.05-2.05-2.73-5.29-1.52-8.35q13.12-1.96,26.24-3.92c.42,2.14,1.98,5.38,1.45,7.4-1.01,3.89-8.48,4.15-13.66,4.87Z"/>
      <path class="cls-2" d="M99.71,11.1c-3.02-2.76-11.64-5.41-15.75-6.58C62.52-1.59,39.47-1.59,18.14,5.03c-2.34.73-8.14,2.8-10.18,3.79C2.09,11.68,1.74,14.22.75,20.27c-.02.1.25.05.25.06q13.94-2.02,27.89-4.05c1.71,5.15,2.95,10.45,4.62,15.62.07.22.37.17.38.19h35.92q.28.06.57.13c1.82-5.2,2.86-10.71,4.68-15.94,3.48.58,26.63,3.4,27.89,4.05-.1-3.48-.54-6.78-3.23-9.23ZM61.51,29.56q-9.58-.09-19.16-.19c-2.06-4.55-4.45-8.98-6.2-13.66,4.4.01,8.82-.18,13.22-.19,6.17-.02,12.36.15,18.53.32l-6.39,13.72Z"/>
      <g>
        <path class="cls-2" d="M37.49,50.17c4.26-.72,4.25,4.96,1.01,5.32-3.73.41-4.07-4.79-1.01-5.32Z"/>
        <path class="cls-2" d="M38.5,63.45c-3.94,1.01-4.81-4.75-1.52-5.31,3.97-.67,4.54,4.54,1.52,5.31Z"/>
        <path class="cls-2" d="M41.03,69.65c-3.84.57-4.19-4.79-1.01-5.31,3.96-.65,4.33,4.82,1.01,5.31Z"/>
        <path class="cls-2" d="M42.17,44.48c3.91-.38,4.05,5.26.5,5.44-3.64.19-3.8-5.11-.5-5.44Z"/>
        <path class="cls-2" d="M48.87,73.82c-4.04.67-4.4-4.85-1.14-5.31,3.83-.54,4.29,4.8,1.14,5.31Z"/>
        <path class="cls-2" d="M50.51,40.94c3.71-.27,4.04,5.19.51,5.44-3.86.27-3.83-5.19-.51-5.44Z"/>
        <path class="cls-2" d="M57.97,73.45c-3.8.39-4.23-4.95-.88-5.44,3.88-.57,4.38,5.07.88,5.44Z"/>
        <path class="cls-2" d="M58.48,42.97c4-.68,4.44,4.78,1.27,5.31-4.11.67-4.49-4.77-1.27-5.31Z"/>
        <path class="cls-2" d="M42.74,63.52c-4.26-6.7.67-15.43,8.03-16,9.68-.76,15.22,10.2,9.17,17.14-4.55,5.21-13.44,4.78-17.2-1.14Z"/>
        <path class="cls-2" d="M63.16,69.02c-2.62-.78-2.01-4.79.38-5.19,4.66-.76,4.22,6.55-.38,5.19Z"/>
        <path class="cls-2" d="M66.83,61.43c-3.97.65-4.28-4.87-1.01-5.31,3.84-.52,4.16,4.79,1.01,5.31Z"/>
        <path class="cls-2" d="M66.83,54.73c-3.96.55-4.35-4.99-1.14-5.44,3.95-.56,4.34,4.99,1.14,5.44Z"/>
        <path class="cls-2" d="M85.99,75.72c-.17-.83-1.01-2.95-1.39-4.17-1.16-3.68-2.47-7.34-3.67-11-2.5-7.62-5.13-15.2-7.59-22.83-.7-1.38-1.69-2.74-3.16-3.35-.56-.24-1.24-.45-1.83-.51-1.64-.18-31.25-.19-32.89,0-.54.06-1.19.3-1.7.51-1.58.63-2.44,1.89-3.17,3.35-2.59,8.2-5.51,16.3-8.22,24.47-1.03,3.11-3.97,11.28-4.42,13.15-.46,1.86-.71,2.87.5,4.68.97,1.2,2.13,2.18,3.73,2.4,1.11.16,9.33-.01,11.96,0,11.62.08,23.27.08,34.9,0,2.65-.01,12.15.24,13.72-.25,2.86-.88,3.78-3.76,3.23-6.45ZM65.31,71.3c-14.93,11.46-37.76-.63-32.95-17.9,2.05-7.32,10.2-13.28,17.65-13.85,18.65-1.43,30.44,20.12,15.3,31.75Z"/>
        <g>
          <path class="cls-2" d="M65.69,49.29c3.95-.56,4.34,4.99,1.14,5.44-3.96.55-4.35-4.99-1.14-5.44ZM58.48,42.97c4-.68,4.44,4.78,1.27,5.31-4.11.67-4.49-4.77-1.27-5.31ZM50.51,40.94c3.71-.27,4.04,5.19.51,5.44-3.86.27-3.83-5.19-.51-5.44ZM42.17,44.48c3.91-.38,4.05,5.26.5,5.44-3.64.19-3.8-5.11-.5-5.44ZM37.49,50.17c4.26-.72,4.25,4.96,1.01,5.32-3.73.41-4.07-4.79-1.01-5.32ZM36.98,58.14c3.97-.67,4.54,4.54,1.52,5.31-3.94,1.01-4.81-4.75-1.52-5.31ZM41.03,69.65c-3.84.57-4.19-4.79-1.01-5.31,3.96-.65,4.33,4.82,1.01,5.31ZM48.87,73.82c-4.04.67-4.4-4.85-1.14-5.31,3.83-.54,4.29,4.8,1.14,5.31ZM42.74,63.52c-4.26-6.7.67-15.43,8.03-16,9.68-.76,15.22,10.2,9.17,17.14-4.55,5.21-13.44,4.78-17.2-1.14ZM57.97,73.45c-3.8.39-4.23-4.95-.88-5.44,3.88-.57,4.38,5.07.88,5.44ZM63.16,69.02c-2.62-.78-2.01-4.79.38-5.19,4.66-.76,4.22,6.55-.38,5.19ZM66.83,61.43c-3.97.65-4.28-4.87-1.01-5.31,3.84-.52,4.16,4.79,1.01,5.31Z"/>
          <path class="cls-1" d="M37.49,50.17c4.26-.72,4.25,4.96,1.01,5.32-3.73.41-4.07-4.79-1.01-5.32Z"/>
          <path class="cls-1" d="M38.5,63.45c-3.94,1.01-4.81-4.75-1.52-5.31,3.97-.67,4.54,4.54,1.52,5.31Z"/>
          <path class="cls-1" d="M41.03,69.65c-3.84.57-4.19-4.79-1.01-5.31,3.96-.65,4.33,4.82,1.01,5.31Z"/>
          <path class="cls-1" d="M42.17,44.48c3.91-.38,4.05,5.26.5,5.44-3.64.19-3.8-5.11-.5-5.44Z"/>
          <path class="cls-1" d="M48.87,73.82c-4.04.67-4.4-4.85-1.14-5.31,3.83-.54,4.29,4.8,1.14,5.31Z"/>
          <path class="cls-1" d="M50.51,40.94c3.71-.27,4.04,5.19.51,5.44-3.86.27-3.83-5.19-.51-5.44Z"/>
          <path class="cls-1" d="M57.97,73.45c-3.8.39-4.23-4.95-.88-5.44,3.88-.57,4.38,5.07.88,5.44Z"/>
          <path class="cls-1" d="M58.48,42.97c4-.68,4.44,4.78,1.27,5.31-4.11.67-4.49-4.77-1.27-5.31Z"/>
          <path class="cls-1" d="M42.74,63.52c-4.26-6.7.67-15.43,8.03-16,9.68-.76,15.22,10.2,9.17,17.14-4.55,5.21-13.44,4.78-17.2-1.14Z"/>
          <path class="cls-1" d="M63.16,69.02c-2.62-.78-2.01-4.79.38-5.19,4.66-.76,4.22,6.55-.38,5.19Z"/>
          <path class="cls-1" d="M66.83,61.43c-3.97.65-4.28-4.87-1.01-5.31,3.84-.52,4.16,4.79,1.01,5.31Z"/>
          <path class="cls-1" d="M65.69,49.29c3.95-.56,4.34,4.99,1.14,5.44-3.96.55-4.35-4.99-1.14-5.44Z"/>
          <g>
            <path class="cls-2" d="M59.94,64.66c-4.55,5.21-13.44,4.78-17.2-1.14-4.26-6.7.67-15.43,8.03-16,9.68-.76,15.22,10.2,9.17,17.14Z"/>
            <path class="cls-2" d="M57.97,73.45c-3.8.39-4.23-4.95-.88-5.44,3.88-.57,4.38,5.07.88,5.44Z"/>
            <path class="cls-2" d="M66.83,54.73c-3.96.55-4.35-4.99-1.14-5.44,3.95-.56,4.34,4.99,1.14,5.44Z"/>
            <path class="cls-2" d="M38.5,63.45c-3.94,1.01-4.81-4.75-1.52-5.31,3.97-.67,4.54,4.54,1.52,5.31Z"/>
            <path class="cls-2" d="M59.75,48.28c-4.11.67-4.49-4.77-1.27-5.31,4-.68,4.44,4.78,1.27,5.31Z"/>
            <path class="cls-2" d="M51.02,46.38c-3.86.27-3.83-5.19-.51-5.44,3.71-.27,4.04,5.19.51,5.44Z"/>
            <path class="cls-2" d="M42.67,49.92c-3.64.19-3.8-5.11-.5-5.44,3.91-.38,4.05,5.26.5,5.44Z"/>
            <path class="cls-2" d="M48.87,73.82c-4.04.67-4.4-4.85-1.14-5.31,3.83-.54,4.29,4.8,1.14,5.31Z"/>
            <path class="cls-2" d="M41.03,69.65c-3.84.57-4.19-4.79-1.01-5.31,3.96-.65,4.33,4.82,1.01,5.31Z"/>
            <path class="cls-2" d="M63.16,69.02c-2.62-.78-2.01-4.79.38-5.19,4.66-.76,4.22,6.55-.38,5.19Z"/>
            <path class="cls-2" d="M38.5,55.49c-3.73.41-4.07-4.79-1.01-5.32,4.26-.72,4.25,4.96,1.01,5.32Z"/>
            <path class="cls-2" d="M66.83,61.43c-3.97.65-4.28-4.87-1.01-5.31,3.84-.52,4.16,4.79,1.01,5.31Z"/>
          </g>
        </g>
      </g>
    </g>
  </g>
</svg>