<?xml version="1.0" encoding="UTF-8"?>
<svg id="Layer_2" data-name="Layer 2" xmlns="http://www.w3.org/2000/svg" xmlns:xlink="http://www.w3.org/1999/xlink" viewBox="0 0 100 100">
  <defs>
    <style>
      .cls-1 {
        fill: #fdfefe;
      }

      .cls-1, .cls-2, .cls-3, .cls-4 {
        stroke-width: 0px;
      }

      .cls-2 {
        fill: none;
      }

      .cls-5 {
        clip-path: url(#clippath);
      }

      .cls-3 {
        fill: #daf6ff;
      }

      .cls-4 {
        fill: #118ab2;
      }
    </style>
    <clipPath id="clippath">
      <rect class="cls-2" x="18" y="24.5" width="64" height="50.81"/>
    </clipPath>
  </defs>
  <g id="Layer_1-2" data-name="Layer 1">
    <g>
      <circle class="cls-4" cx="50" cy="50" r="50"/>
      <g class="cls-5">
        <g>
          <path class="cls-3" d="M81.64,38.04c.21,1.23.6,2.29.15,3.54-.26.75-1.28,1.79-2.03,2.06-.94.34-1.9.24-2.88.15-1.06-.09-3.13-.51-4.44-.7-1.6-.24-5.9-.7-6.97-1.48-2.16-1.57-.59-3.94-.15-6l16.32,2.41h0Z"/>
          <path class="cls-3" d="M27.18,43.18c-1.26.17-4.09.69-5.06.7-1.01.01-1.8-.14-2.65-.7-1.88-1.26-1.68-3.26-.94-5.14,5.39-.8,10.78-1.61,16.16-2.41.26,1.32,1.22,3.31.89,4.56-.62,2.4-5.22,2.56-8.41,3h0Z"/>
          <path class="cls-3" d="M79.42,31.34c-1.86-1.7-7.17-3.33-9.7-4.05-13.21-3.76-27.4-3.76-40.54.31-1.44.45-5.01,1.72-6.27,2.33-3.62,1.76-3.83,3.33-4.44,7.05-.01.06.15.03.15.04,5.72-.83,11.45-1.66,17.18-2.49,1.05,3.17,1.82,6.44,2.85,9.62.04.14.23.1.23.12h22.13c.12.02.23.05.35.08,1.12-3.2,1.76-6.6,2.88-9.82,2.14.36,16.4,2.09,17.18,2.49-.06-2.14-.33-4.18-1.99-5.69h0ZM55.89,42.71c-3.93-.04-7.87-.08-11.8-.12-1.27-2.8-2.74-5.53-3.82-8.41,2.71,0,5.43-.11,8.14-.12,3.8-.01,7.61.09,11.41.2l-3.94,8.45Z"/>
          <path class="cls-3" d="M41.09,55.4c2.62-.44,2.62,3.06.62,3.28-2.3.25-2.51-2.95-.62-3.28Z"/>
          <path class="cls-3" d="M41.72,63.58c-2.43.62-2.96-2.93-.94-3.27,2.45-.41,2.8,2.8.94,3.27Z"/>
          <path class="cls-3" d="M43.27,67.4c-2.37.35-2.58-2.95-.62-3.27,2.44-.4,2.67,2.97.62,3.27Z"/>
          <path class="cls-3" d="M43.98,51.9c2.41-.23,2.49,3.24.31,3.35-2.24.12-2.34-3.15-.31-3.35Z"/>
          <path class="cls-3" d="M48.1,69.97c-2.49.41-2.71-2.99-.7-3.27,2.36-.33,2.64,2.96.7,3.27Z"/>
          <path class="cls-3" d="M49.11,49.72c2.29-.17,2.49,3.2.31,3.35-2.38.17-2.36-3.2-.31-3.35Z"/>
          <path class="cls-3" d="M53.71,69.74c-2.34.24-2.61-3.05-.54-3.35,2.39-.35,2.7,3.12.54,3.35Z"/>
          <path class="cls-3" d="M54.02,50.97c2.46-.42,2.74,2.94.78,3.27-2.53.41-2.77-2.94-.78-3.27Z"/>
          <path class="cls-3" d="M44.33,63.63c-2.62-4.13.41-9.5,4.95-9.86,5.96-.47,9.38,6.28,5.65,10.56-2.8,3.21-8.28,2.94-10.59-.7Z"/>
          <path class="cls-3" d="M56.9,67.01c-1.61-.48-1.24-2.95.23-3.2,2.87-.47,2.6,4.03-.23,3.2Z"/>
          <path class="cls-3" d="M59.17,62.34c-2.44.4-2.64-3-.62-3.27,2.37-.32,2.56,2.95.62,3.27Z"/>
          <path class="cls-3" d="M59.17,58.21c-2.44.34-2.68-3.07-.7-3.35,2.43-.35,2.67,3.07.7,3.35Z"/>
          <path class="cls-3" d="M70.97,71.14c-.11-.51-.62-1.82-.86-2.57-.71-2.27-1.52-4.52-2.26-6.78-1.54-4.69-3.16-9.36-4.68-14.06-.43-.85-1.04-1.69-1.95-2.06-.35-.15-.76-.28-1.13-.31-1.01-.11-19.25-.12-20.26,0-.33.04-.73.18-1.05.31-.97.39-1.5,1.16-1.95,2.06-1.6,5.05-3.39,10.04-5.06,15.07-.63,1.92-2.45,6.95-2.72,8.1-.28,1.15-.44,1.77.31,2.88.6.74,1.31,1.34,2.3,1.48.68.1,5.75,0,7.37,0,7.16.05,14.33.05,21.5,0,1.63,0,7.48.15,8.45-.15,1.76-.54,2.33-2.32,1.99-3.97ZM58.23,68.42c-9.2,7.06-23.26-.39-20.3-11.03,1.26-4.51,6.28-8.18,10.87-8.53,11.49-.88,18.75,12.39,9.42,19.56Z"/>
          <path class="cls-3" d="M58.46,54.86c2.43-.35,2.67,3.07.7,3.35-2.44.34-2.68-3.07-.7-3.35ZM54.02,50.97c2.46-.42,2.74,2.94.78,3.27-2.53.41-2.77-2.94-.78-3.27ZM49.11,49.72c2.29-.17,2.49,3.2.31,3.35-2.38.17-2.36-3.2-.31-3.35ZM43.98,51.9c2.41-.23,2.49,3.24.31,3.35-2.24.12-2.34-3.15-.31-3.35ZM41.09,55.4c2.62-.44,2.62,3.06.62,3.28-2.3.25-2.51-2.95-.62-3.28ZM40.78,60.31c2.45-.41,2.8,2.8.94,3.27-2.43.62-2.96-2.93-.94-3.27ZM43.27,67.4c-2.37.35-2.58-2.95-.62-3.27,2.44-.4,2.67,2.97.62,3.27ZM48.1,69.97c-2.49.41-2.71-2.99-.7-3.27,2.36-.33,2.64,2.96.7,3.27ZM44.33,63.63c-2.62-4.13.41-9.5,4.95-9.86,5.96-.47,9.38,6.28,5.65,10.56-2.8,3.21-8.28,2.94-10.59-.7ZM53.71,69.74c-2.34.24-2.61-3.05-.54-3.35,2.39-.35,2.7,3.12.54,3.35ZM56.9,67.01c-1.61-.48-1.24-2.95.23-3.2,2.87-.47,2.6,4.03-.23,3.2ZM59.17,62.34c-2.44.4-2.64-3-.62-3.27,2.37-.32,2.56,2.95.62,3.27Z"/>
          <path class="cls-1" d="M41.09,55.4c2.62-.44,2.62,3.06.62,3.28-2.3.25-2.51-2.95-.62-3.28Z"/>
          <path class="cls-1" d="M41.72,63.58c-2.43.62-2.96-2.93-.94-3.27,2.45-.41,2.8,2.8.94,3.27Z"/>
          <path class="cls-1" d="M43.27,67.4c-2.37.35-2.58-2.95-.62-3.27,2.44-.4,2.67,2.97.62,3.27Z"/>
          <path class="cls-1" d="M43.98,51.9c2.41-.23,2.49,3.24.31,3.35-2.24.12-2.34-3.15-.31-3.35Z"/>
          <path class="cls-1" d="M48.1,69.97c-2.49.41-2.71-2.99-.7-3.27,2.36-.33,2.64,2.96.7,3.27Z"/>
          <path class="cls-1" d="M49.11,49.72c2.29-.17,2.49,3.2.31,3.35-2.38.17-2.36-3.2-.31-3.35Z"/>
          <path class="cls-1" d="M53.71,69.74c-2.34.24-2.61-3.05-.54-3.35,2.39-.35,2.7,3.12.54,3.35Z"/>
          <path class="cls-1" d="M54.02,50.97c2.46-.42,2.74,2.94.78,3.27-2.53.41-2.77-2.94-.78-3.27Z"/>
          <path class="cls-1" d="M44.33,63.63c-2.62-4.13.41-9.5,4.95-9.86,5.96-.47,9.38,6.28,5.65,10.56-2.8,3.21-8.28,2.94-10.59-.7Z"/>
          <path class="cls-1" d="M56.9,67.01c-1.61-.48-1.24-2.95.23-3.2,2.87-.47,2.6,4.03-.23,3.2Z"/>
          <path class="cls-1" d="M59.17,62.34c-2.44.4-2.64-3-.62-3.27,2.37-.32,2.56,2.95.62,3.27Z"/>
          <path class="cls-1" d="M58.46,54.86c2.43-.35,2.67,3.07.7,3.35-2.44.34-2.68-3.07-.7-3.35Z"/>
          <path class="cls-3" d="M54.92,64.33c-2.8,3.21-8.28,2.94-10.59-.7-2.62-4.13.41-9.5,4.95-9.86,5.96-.47,9.38,6.28,5.65,10.56Z"/>
          <path class="cls-3" d="M53.71,69.74c-2.34.24-2.61-3.05-.54-3.35,2.39-.35,2.7,3.12.54,3.35Z"/>
          <path class="cls-3" d="M59.17,58.21c-2.44.34-2.68-3.07-.7-3.35,2.43-.35,2.67,3.07.7,3.35Z"/>
          <path class="cls-3" d="M41.72,63.58c-2.43.62-2.96-2.93-.94-3.27,2.45-.41,2.8,2.8.94,3.27Z"/>
          <path class="cls-3" d="M54.8,54.24c-2.53.41-2.77-2.94-.78-3.27,2.46-.42,2.74,2.94.78,3.27Z"/>
          <path class="cls-3" d="M49.43,53.07c-2.38.17-2.36-3.2-.31-3.35,2.29-.17,2.49,3.2.31,3.35Z"/>
          <path class="cls-3" d="M44.28,55.25c-2.24.12-2.34-3.15-.31-3.35,2.41-.23,2.49,3.24.31,3.35Z"/>
          <path class="cls-3" d="M48.1,69.97c-2.49.41-2.71-2.99-.7-3.27,2.36-.33,2.64,2.96.7,3.27Z"/>
          <path class="cls-3" d="M43.27,67.4c-2.37.35-2.58-2.95-.62-3.27,2.44-.4,2.67,2.97.62,3.27Z"/>
          <path class="cls-3" d="M56.9,67.01c-1.61-.48-1.24-2.95.23-3.2,2.87-.47,2.6,4.03-.23,3.2Z"/>
          <path class="cls-3" d="M41.72,58.68c-2.3.25-2.51-2.95-.62-3.28,2.62-.44,2.62,3.06.62,3.28Z"/>
          <path class="cls-3" d="M59.17,62.34c-2.44.4-2.64-3-.62-3.27,2.37-.32,2.56,2.95.62,3.27Z"/>
        </g>
      </g>
    </g>
  </g>
</svg>