<?xml version="1.0" encoding="UTF-8"?>
<svg id="Layer_2" data-name="Layer 2" xmlns="http://www.w3.org/2000/svg" xmlns:xlink="http://www.w3.org/1999/xlink" viewBox="0 0 100 100">
  <defs>
    <style>
      .cls-1 {
        fill: #ffd166;
      }

      .cls-1, .cls-2, .cls-3 {
        stroke-width: 0px;
      }

      .cls-2 {
        fill: none;
      }

      .cls-4 {
        clip-path: url(#clippath);
      }

      .cls-3 {
        fill: #fff9e2;
      }
    </style>
    <clipPath id="clippath">
      <rect class="cls-2" x="18" y="21" width="64" height="62.25"/>
    </clipPath>
  </defs>
  <g id="Layer_1-2" data-name="Layer 1">
    <g>
      <circle class="cls-1" cx="50" cy="50" r="50"/>
      <g class="cls-4">
        <g>
          <path class="cls-3" d="M23.6,35.14c.99-.13,18.91-.13,19.89,0,1.77.23,3.53,1.69,4.02,3.42.3,1.04,1.85,19.56,1.73,20.58-.25,2.14-3,2.87-4.24,1.04-.9-1.32-1.13-7.61-1.38-9.6-.35-2.74-.43-6.34-2.38-6.36l-.13.13c-.25,5.09.32,35.11,0,36.93-.42,2.4-4.92,2.71-5.53.26-.27-1.09-.76-17.11-.86-20.15-.22-1.44-1.74-1.82-2.16-.26-.23,2.97-.6,19.54-.95,20.58-.73,2.19-4.8,1.91-5.36,0-.53-1.79.23-32.65-.09-37.36-1.96-.68-2.09,2.55-2.42,5.02-.29,2.15-.65,9.14-1.38,10.55-1.16,2.23-4.02,1.31-4.32-.43-.23-1.34,1.4-17.32,1.56-20.5.39-1.9,2.08-3.6,4.02-3.85h-.02Z"/>
          <path class="cls-3" d="M32.77,21.04c5.73-.61,9.46,5.77,5.92,10.42-2.77,3.64-8.36,3.29-10.64-.7-2.46-4.3.55-9.28,4.72-9.72Z"/>
          <path class="cls-3" d="M56.35,35.14c.99-.13,18.91-.13,19.89,0,1.77.23,3.53,1.69,4.02,3.42.3,1.04,1.85,19.56,1.73,20.58-.25,2.14-3,2.87-4.24,1.04-.9-1.32-1.13-7.61-1.38-9.6-.35-2.74-.43-6.34-2.38-6.36l-.13.13c-.25,5.09.32,35.11,0,36.93-.42,2.4-4.92,2.71-5.53.26-.27-1.09-.75-17.11-.86-20.15-.22-1.44-1.74-1.82-2.16-.26-.23,2.97-.6,19.54-.95,20.58-.73,2.19-4.8,1.91-5.36,0-.53-1.79.23-32.65-.09-37.36-1.96-.68-2.08,2.55-2.42,5.02-.29,2.15-.65,9.14-1.38,10.55-1.16,2.23-4.02,1.31-4.32-.43-.23-1.34,1.4-17.32,1.56-20.5.39-1.9,2.08-3.6,4.02-3.85h-.02Z"/>
          <path class="cls-3" d="M65.52,21.04c5.73-.61,9.46,5.77,5.92,10.42-2.77,3.64-8.36,3.29-10.64-.7-2.46-4.3.55-9.29,4.71-9.73h0Z"/>
        </g>
      </g>
    </g>
  </g>
</svg>