<?xml version="1.0" encoding="UTF-8"?>
<svg id="Layer_2" data-name="Layer 2" xmlns="http://www.w3.org/2000/svg" viewBox="0 0 90.24 90.23">
  <defs>
    <style>
      .cls-1 {
        stroke-width: 0px;
      }
    </style>
  </defs>
  <g id="Layer_1-2" data-name="Layer 1">
    <g>
      <path class="cls-1" d="M42.24,71.39l-15.06,15.06c-5.6,5.6-15.38,4.9-21.84-1.56s-7.16-16.24-1.56-21.84l15.06-15.06c.19.36.43.7.73,1l21.66,21.65c.29.3.63.56,1.01.75Z"/>
      <path class="cls-1" d="M86.46,27.18l-15.07,15.06c-.19-.37-.44-.71-.75-1.02l-21.63-21.63c-.3-.3-.64-.55-1.01-.75l15.06-15.06c5.6-5.6,15.38-4.9,21.84,1.56,6.46,6.46,7.16,16.24,1.56,21.84Z"/>
      <path class="cls-1" d="M70.26,43.37c-.13-.4-.36-.77-.68-1.09l-21.63-21.63c-.31-.31-.68-.54-1.08-.68-.31-.11-.64-.17-.97-.17-.74,0-1.49.29-2.05.85l-23.2,23.19c-.81.81-1.04,2-.68,3.02.14.4.37.77.68,1.09l21.64,21.63c.31.32.68.55,1.08.68.31.11.64.17.97.17.74,0,1.49-.29,2.05-.85l23.19-23.19c.82-.82,1.05-2,.68-3.02ZM46.25,46.25c-.3.3-.7.47-1.13.47s-.83-.17-1.13-.47c-.63-.63-.63-1.64,0-2.27.3-.3.7-.47,1.13-.47s.83.17,1.13.47c.63.63.63,1.64,0,2.27ZM60.36,42.94c.31-.3.71-.47,1.14-.47s.83.17,1.13.47c.63.63.63,1.64,0,2.27-.3.3-.7.47-1.13.47s-.83-.17-1.14-.47c-.62-.63-.62-1.64,0-2.27ZM52.56,35.14c.31-.3.71-.47,1.14-.47s.83.17,1.13.47c.3.3.47.71.47,1.13s-.17.84-.47,1.14c-.3.3-.7.47-1.13.47s-.83-.17-1.14-.47c-.62-.63-.62-1.64,0-2.27ZM51.78,51.78c.31-.3.71-.47,1.14-.47s.83.17,1.13.47c.63.63.63,1.64,0,2.27-.3.3-.7.47-1.13.47s-.83-.17-1.14-.47c-.62-.63-.62-1.64,0-2.27ZM47.03,27.34c.63.63.63,1.64,0,2.27-.3.3-.7.47-1.13.47s-.83-.17-1.13-.47c-.63-.63-.63-1.64,0-2.27.3-.3.7-.47,1.13-.47s.83.17,1.13.47ZM29.87,47.29c-.3.3-.7.47-1.13.47s-.83-.17-1.13-.47c-.63-.63-.63-1.64,0-2.27.3-.3.7-.47,1.13-.47s.83.17,1.13.47c.63.63.63,1.64,0,2.27ZM37.67,55.09c-.3.3-.7.47-1.13.47s-.83-.17-1.13-.47c-.63-.63-.63-1.64,0-2.27.3-.3.7-.47,1.13-.47s.83.17,1.13.47c.63.63.63,1.64,0,2.27ZM38.45,38.45c-.3.3-.7.47-1.13.47s-.83-.17-1.13-.47c-.63-.63-.63-1.64,0-2.27.3-.3.7-.47,1.13-.47s.83.17,1.13.47c.63.63.63,1.64,0,2.27ZM43.21,62.89c-.63-.63-.63-1.64,0-2.27.3-.3.7-.47,1.13-.47s.83.17,1.13.47c.63.63.63,1.64,0,2.27-.3.3-.7.47-1.13.47s-.83-.17-1.13-.47Z"/>
    </g>
  </g>
</svg>