<?xml version="1.0" encoding="UTF-8"?>
<svg id="Layer_2" data-name="Layer 2" xmlns="http://www.w3.org/2000/svg" viewBox="0 0 100 90.96">
  <defs>
    <style>
      .cls-1 {
        stroke-width: 0px;
      }

      .cls-2 {
        fill: none;
        stroke: #000;
        stroke-linecap: round;
        stroke-miterlimit: 10;
        stroke-width: 4px;
      }
    </style>
  </defs>
  <g id="Layer_1-2" data-name="Layer 1">
    <g>
      <rect class="cls-1" x="18.88" y="80.63" width="61.25" height="10.33" rx="3.72" ry="3.72"/>
      <path class="cls-1" d="M49.87,22.96c-14.26,0-25.83,11.56-25.83,25.83v30.25h51.65v-30.25c0-14.26-11.56-25.83-25.83-25.83ZM68.84,51c-.07,0-.14.01-.21.01-.85,0-1.58-.63-1.68-1.49,0-.06-.85-6.39-4.72-11.02-4.02-4.82-10.65-5.34-10.71-5.34-.94-.07-1.64-.88-1.58-1.81.07-.94.87-1.65,1.81-1.58.33.02,8.15.63,13.09,6.56,4.52,5.42,5.44,12.48,5.48,12.78.12.93-.54,1.78-1.48,1.9Z"/>
      <line class="cls-2" x1="49.93" y1="17" x2="49.93" y2="2"/>
      <line class="cls-2" x1="74.7" y1="26.77" x2="85.3" y2="16.16"/>
      <line class="cls-2" x1="83" y1="54.96" x2="98" y2="54.96"/>
      <line class="cls-2" x1="24.3" y1="26.77" x2="13.7" y2="16.16"/>
      <line class="cls-2" x1="17" y1="52.96" x2="2" y2="52.96"/>
    </g>
  </g>
</svg>